<?xml version="1.0" encoding="UTF-8"?>
<svg width="16" height="16" viewBox="0 0 16 16" xmlns="http://www.w3.org/2000/svg">
    <path fill-rule="evenodd" clip-rule="evenodd" d="M8 1.5A2.5 2.5 0 0 1 10.5 4v1h.5A2 2 0 0 1 13 7v5a2 2 0 0 1-2 2H5a2 2 0 0 1-2-2V7a2 2 0 0 1 2-2h.5V4A2.5 2.5 0 0 1 8 1.5zM6 5h4V4a2 2 0 1 0-4 0v1zM5 6a1 1 0 0 0-1 1v5a1 1 0 0 0 1 1h6a1 1 0 0 0 1-1V7a1 1 0 0 0-1-1H5zm1.25 2a.75.75 0 1 0 0 1.5.75.75 0 0 0 0-1.5zm3.75.75a.75.75 0 1 1 1.5 0 .75.75 0 0 1-1.5 0zM7 11h2v1H7v-1z" fill="currentColor"/>
</svg> 